HIERARCHY
ROOT pelvis
{
  OFFSET 0 100 0
  CHANNELS 6 Xposition Yposition Zposition Zrotation Xrotation Yrotation
  JOINT pelvis_right_femur
  {
    OFFSET -10.78128 -3.44521 -0.5502486
    CHANNELS 3 Zrotation Xrotation Yrotation
    JOINT right_femur_tibia
    {
      OFFSET -0.8047443 -44.0398 -0.1307829
      CHANNELS 3 Zrotation Xrotation Yrotation
      JOINT right_tibia_foot
      {
        OFFSET 3.006224 -47.83518 -5
        CHANNELS 3 Zrotation Xrotation Yrotation
        End Site
        {
          OFFSET 0 -5 15
        }
      }
    }
  }
  JOINT pelvis_left_femur
  {
    OFFSET 10.78128 -3.44521 -0.5502486
    CHANNELS 3 Zrotation Xrotation Yrotation
    JOINT left_femur_tibia
    {
      OFFSET 0.8047443 -44.0398 -0.1307829
      CHANNELS 3 Zrotation Xrotation Yrotation
      JOINT left_tibia_foot
      {
        OFFSET -4.370144 -48.10324 -4.275266
        CHANNELS 3 Zrotation Xrotation Yrotation
        End Site
        {
          OFFSET 0 -5 15
        }
      }
    }
  }
  JOINT pelvis_spine1
  {
    OFFSET 0 6.468898 -3.129235
    CHANNELS 3 Zrotation Xrotation Yrotation
    JOINT spine1
    {
      OFFSET 0 23.15396 4.99043
      CHANNELS 3 Zrotation Xrotation Yrotation
      JOINT spine2
      {
        OFFSET 0 20.79997 -5.064912
        CHANNELS 3 Zrotation Xrotation Yrotation
        JOINT neck
        {
          OFFSET 0 14.38658 9.616178
          CHANNELS 3 Zrotation Xrotation Yrotation
          End Site
          {
            OFFSET 0 20 0
          }
        }
      }
      JOINT right_manubrium
      {
        OFFSET -5.722621 16.35077 3.967754
        CHANNELS 3 Zrotation Xrotation Yrotation
        JOINT right_clavicle
        {
          OFFSET -13.16364 1.694482 -4.693211
          CHANNELS 3 Zrotation Xrotation Yrotation
          JOINT right_humerus
          {
            OFFSET -28.5034 -0.3100689 -2.792744
            CHANNELS 3 Zrotation Xrotation Yrotation
            JOINT right_radius
            {
              OFFSET -25.15693 0.02248979 -1.271978
              CHANNELS 3 Zrotation Xrotation Yrotation
              End Site
              {
                OFFSET -15 0 0
              }
            }
          }
        }
      }
      JOINT left_manubrium
      {
        OFFSET 5.722621 16.35077 3.967754
        CHANNELS 3 Zrotation Xrotation Yrotation
        JOINT left_clavicle
        {
          OFFSET 13.16364 1.694482 -4.693211
          CHANNELS 3 Zrotation Xrotation Yrotation
          JOINT left_humerus
          {
            OFFSET 29.39168 -1.063119 -2.237045
            CHANNELS 3 Zrotation Xrotation Yrotation
            JOINT left_radius
            {
              OFFSET 24.59957 -0.9528479 0.9047498
              CHANNELS 3 Zrotation Xrotation Yrotation
              End Site
              {
                OFFSET 15 -0 -0
              }
            }
          }
        }
      }
    }
  }
}
MOTION
Frames: 9
Frame Time: 0.0416666666667
0 103.5113 0 2.196529 -1.139648 0.2739116 1.205573 -10.08617 8.654579 -0 33.76248 -0 -5.244182 -17.83952 -2.183552 -8.051812 10.07416 -23.43837 -0 5.206191 -0 7.652256 -16.17589 26.52529 -4.355838 -5.068831 4.980582 2.034895 9.199551 -7.72679 0.8482343 22.8034 7.164727 3.25625 -23.10017 8.806001 6.358073 -19.73368 11.57505 86.31555 35.94435 -19.80781 -0 0 16.22644 -7.583095 8.247011 4.613623 5.538792 -19.50108 -1.674732 -94.76801 29.73727 22.87395 0 0 -16.04318 3.508035 17.90698 9.532745
0.3494301 103.4502 1.426046 2.08319 -0.9122026 0.4600847 1.381323 -11.00621 8.407126 -0 32.07549 -0 -5.245935 -17.2279 -1.886838 -7.953706 10.17587 -23.18935 -0 5.408949 -0 7.458245 -16.4773 26.24525 -4.322354 -4.923544 4.973752 2.13663 9.14366 -7.715005 0.8929814 22.69317 7.164452 3.289675 -23.21646 8.829546 6.311018 -19.62778 11.57028 86.32134 35.91831 -19.8885 -0 0 16.07678 -7.633609 8.28851 4.629837 5.675064 -19.58427 -1.637011 -94.63855 29.68015 22.62924 0 0 -16.39427 3.571758 17.82561 9.460212
0.7185374 103.3103 3.005482 1.938335 -0.5788039 0.6044978 1.587335 -12.22402 8.03409 -0 29.41384 -0 -5.246156 -16.33319 -1.410721 -7.83563 10.30802 -22.81149 -0 5.753185 -0 7.159855 -16.89059 25.81396 -4.281507 -4.7407 4.977436 2.274863 9.063574 -7.691422 0.9556995 22.53869 7.162703 3.339491 -23.3637 8.855617 6.236258 -19.46748 11.56073 86.34487 35.87996 -20.01301 -0 0 15.85332 -7.706949 8.352396 4.653583 5.870889 -19.70548 -1.582625 -94.44633 29.59724 22.26578 0 0 -16.89225 3.659725 17.70918 9.354777
1.11192 103.0719 4.788401 1.774465 -0.1503323 0.7102234 1.796226 -13.62069 7.546389 -0 25.84262 -0 -5.254848 -15.20011 -0.7671059 -7.707675 10.45506 -22.30793 -0 6.280779 -0 6.746266 -17.37048 25.22306 -4.23147 -4.540718 4.992968 2.438325 8.963259 -7.657655 1.030085 22.34986 7.16007 3.402767 -23.52536 8.878363 6.135421 -19.25506 11.54559 86.39472 35.83064 -20.18071 -0 0 15.55943 -7.801893 8.440016 4.685652 6.110525 -19.85738 -1.516215 -94.19885 29.48929 21.80127 0 0 -17.49928 3.764017 17.56039 9.224997
1.530859 102.7293 6.823112 1.599417 0.3523184 0.7876989 1.990974 -15.03553 6.967202 -0 21.58599 -0 -5.291485 -13.91152 -3.195022e-05 -7.570957 10.5952 -21.68435 -0 7.074203 -0 6.193568 -17.83842 24.45501 -4.159679 -4.346023 5.013053 2.611395 8.848442 -7.622115 1.104458 22.14129 7.158996 3.473069 -23.6825 8.8903 6.01474 -18.99456 11.52427 86.48202 35.77317 -20.38967 -0 0 15.19894 -7.918016 8.55434 4.728597 6.363227 -20.02592 -1.447452 -93.90972 29.35625 21.27158 0 0 -18.1487 3.871746 17.3802 9.088435
1.971699 102.299 9.157556 1.417636 0.9001967 0.8556963 2.164748 -16.26311 6.329139 -0 16.9919 -0 -5.379424 -12.58304 0.8230655 -7.41931 10.69912 -20.94642 -0 8.26037 -0 5.465698 -18.18272 23.48237 -4.044013 -4.182213 5.023603 2.774091 8.726257 -7.598825 1.162224 21.93205 7.1634 3.540937 -23.81278 8.881779 5.884086 -18.69052 11.49618 86.62128 35.71176 -20.63754 -0 0 14.77481 -8.055968 8.70025 4.786723 6.584588 -20.19127 -1.390787 -93.59679 29.19766 20.7274 0 0 -18.74792 3.965442 17.1677 8.970626
2.42673 101.8182 11.83855 1.231908 1.461393 0.9389584 2.319061 -17.10846 5.666142 -0 12.41757 -0 -5.534796 -11.33085 1.635141 -7.244966 10.73222 -20.102 -0 9.962146 -0 4.536242 -18.29107 22.28782 -3.863446 -4.07072 5.012102 2.90757 8.604249 -7.600238 1.187841 21.74071 7.176426 3.59702 -23.89574 8.843549 5.753786 -18.34905 11.46185 86.82306 35.65057 -20.91868 -0 0 14.29215 -8.217565 8.882113 4.864864 6.7318 -20.3341 -1.360232 -93.27776 29.01335 20.21911 0 0 -19.20898 4.028907 16.9221 8.895743
2.887494 101.3355 14.90637 1.046496 2.001218 1.060967 2.457699 -17.43405 5.006996 -0 8.125734 -0 -5.758967 -10.24514 2.390215 -7.045147 10.6449 -19.16461 -0 12.25791 -0 3.411879 -18.07982 20.88759 -3.609947 -4.019527 4.978942 2.999344 8.490704 -7.627701 1.172905 21.58141 7.197556 3.635111 -23.91737 8.768691 5.631996 -17.98047 11.42554 87.08347 35.59278 -21.21721 -0 0 13.76383 -8.407611 9.10139 4.968126 6.779015 -20.44121 -1.363365 -92.9673 28.80313 19.78345 0 0 -19.47938 4.05302 16.64444 8.877102
3.348498 100.8997 18.3846 0.87207 2.47168 1.232782 2.578721 -17.13799 4.376849 -0 4.277452 -0 -6.038644 -9.398942 3.065165 -6.82516 10.34114 -18.15491 -0 15.2036 -0 2.13863 -17.48645 19.34041 -3.292867 -4.018939 4.946664 3.04268 8.397558 -7.664265 1.117149 21.46587 7.22047 3.652329 -23.86742 8.650582 5.525127 -17.60259 11.39889 87.37637 35.54189 -21.4975 -0 0 13.21563 -8.638581 9.356872 5.10435 6.719051 -20.50484 -1.399347 -92.67879 28.56515 19.44466 0 0 -19.54628 4.036185 16.33728 8.915506
